# xmcd
#
# Track frame offsets:
#	150
#	13327
#	27252
#	40444
#	50558
#	64736
#	75450
#	88352
#	100677
#	114011
#	126709
#	139039
#	150036
#	163377
#	177111
#	192227
#	204034
#	215212
#	229609
#	242162
#
# Disc length: 3380 seconds
#
# Revision: 1
# Processed by: cddbd v1.5.1PL2 Copyright (c) Steve Scherf et al.
# Submitted via: audiograbber 1.82.02
#
DISCID=110d3214
DTITLE=Nat King Cole - Mona Lisa CD2
DYEAR=2005
DGENRE=
TTITLE0=For Sentimental Reasons
TTITLE1=What ll I Do
TTITLE2=Mule Train
TTITLE3=Baby wont you please come home
TTITLE4=Portrait Of Jenny
TTITLE5=Thats my Girl
TTITLE6=Somewhere Along the Way
TTITLE7=Pretend
TTITLE8=Tenderly
TTITLE9=Jet
TTITLE10=Small Towns Are Smile Towns
TTITLE11=The Trouble With Me Is You
TTITLE12=Funny
TTITLE13=The Best Man
TTITLE14=If You Stub Your Toe On The Moon
TTITLE15=Orange Colored Sky
TTITLE16=Youre the Cream In My Coffee
TTITLE17=Faith Can Move Mountains
TTITLE18=A Weaver Of Dreams
TTITLE19=Lover Come Back To Me
EXTD=
EXTT0=
EXTT1=
EXTT2=
EXTT3=
EXTT4=
EXTT5=
EXTT6=
EXTT7=
EXTT8=
EXTT9=
EXTT10=
EXTT11=
EXTT12=
EXTT13=
EXTT14=
EXTT15=
EXTT16=
EXTT17=
EXTT18=
EXTT19=
PLAYORDER=
